<svg xmlns="http://www.w3.org/2000/svg" viewBox="0 0 512 512"><path d="M115.2,0 H396.8 A115.2,115.2 0 0 1 512,115.2 V396.8 A115.2,115.2 0 0 1 396.8,512 H115.2 A115.2,115.2 0 0 1 0,396.8 V115.2 A115.2,115.2 0 0 1 115.2,0 Z" fill="#101214"/><g transform="translate(256.0,256.0) scale(0.4478134110787172)"><g id="logomark" fill="#FFFFFF"><path d="M148.18,-231.18L229.27,-312.27A18.00,18.00 0 0 0 216.54,-343.00L-81.36,-343.00A45.00,45.00 0 0 0 -113.18,-329.82L-287.57,-155.43A60.00,60.00 0 0 0 -287.57,-70.57L-138.18,78.82A45.00,45.00 0 0 0 -106.36,92.00L-3.46,92.00A18.00,18.00 0 0 0 9.27,61.27L-117.57,-65.57A60.00,60.00 0 0 1 -117.57,-150.43L-63.18,-204.82A45.00,45.00 0 0 1 -31.36,-218.00L116.36,-218.00A45.00,45.00 0 0 0 148.18,-231.18Z"/><path d="M-148.18,231.18L-229.27,312.27A18.00,18.00 0 0 0 -216.54,343.00L81.36,343.00A45.00,45.00 0 0 0 113.18,329.82L287.57,155.43A60.00,60.00 0 0 0 287.57,70.57L138.18,-78.82A45.00,45.00 0 0 0 106.36,-92.00L3.46,-92.00A18.00,18.00 0 0 0 -9.27,-61.27L117.57,65.57A60.00,60.00 0 0 1 117.57,150.43L63.18,204.82A45.00,45.00 0 0 1 31.36,218.00L-116.36,218.00A45.00,45.00 0 0 0 -148.18,231.18Z"/></g></g></svg>