<svg xmlns="http://www.w3.org/2000/svg" viewBox="44 -358 5118 716"><g transform="translate(365.135,0)"><g id="logomark" fill="#FFFFFF"><path d="M148.18,-231.18L229.27,-312.27A18.00,18.00 0 0 0 216.54,-343.00L-81.36,-343.00A45.00,45.00 0 0 0 -113.18,-329.82L-287.57,-155.43A60.00,60.00 0 0 0 -287.57,-70.57L-138.18,78.82A45.00,45.00 0 0 0 -106.36,92.00L-3.46,92.00A18.00,18.00 0 0 0 9.27,61.27L-117.57,-65.57A60.00,60.00 0 0 1 -117.57,-150.43L-63.18,-204.82A45.00,45.00 0 0 1 -31.36,-218.00L116.36,-218.00A45.00,45.00 0 0 0 148.18,-231.18Z"/><path d="M-148.18,231.18L-229.27,312.27A18.00,18.00 0 0 0 -216.54,343.00L81.36,343.00A45.00,45.00 0 0 0 113.18,329.82L287.57,155.43A60.00,60.00 0 0 0 287.57,70.57L138.18,-78.82A45.00,45.00 0 0 0 106.36,-92.00L3.46,-92.00A18.00,18.00 0 0 0 -9.27,-61.27L117.57,65.57A60.00,60.00 0 0 1 117.57,150.43L63.18,204.82A45.00,45.00 0 0 1 31.36,218.00L-116.36,218.00A45.00,45.00 0 0 0 -148.18,231.18Z"/></g></g><g transform="translate(819.3842857142857,215.0)"><g id="wordmark" fill="#FFFFFF"><path transform="translate(0.000,0.000) scale(0.614286,-0.614286)" d="M309 -14Q228 -14 166.0 15.0Q104 44 69.0 98.0Q34 152 34 228V256H164V228Q164 165 203.0 133.5Q242 102 309 102Q377 102 410.5 129.0Q444 156 444 198Q444 242 407.5 261.5Q371 281 303 296L280 301Q208 317 156.5 341.5Q105 366 77.5 406.0Q50 446 50 510Q50 606 117.5 660.0Q185 714 297 714Q372 714 430.5 688.5Q489 663 522.5 612.5Q556 562 556 486V456H426V486Q426 546 391.5 572.0Q357 598 297 598Q237 598 208.5 575.5Q180 553 180 514Q180 475 210.0 454.0Q240 433 303 419L326 414Q401 398 456.5 373.0Q512 348 543.0 307.0Q574 266 574 202Q574 138 541.5 89.5Q509 41 449.5 13.5Q390 -14 309 -14Z"/><path transform="translate(372.257,0.000) scale(0.614286,-0.614286)" d="M70 0V700H196V435H214Q226 459 258.5 481.5Q291 504 357 504Q415 504 458.5 477.5Q502 451 526.0 404.5Q550 358 550 296V0H424V286Q424 342 396.5 370.0Q369 398 318 398Q260 398 228.0 359.5Q196 321 196 252V0Z"/><path transform="translate(750.657,0.000) scale(0.614286,-0.614286)" d="M296 -14Q222 -14 165.5 17.5Q109 49 77.5 106.5Q46 164 46 242V254Q46 332 77.0 389.5Q108 447 164.0 478.5Q220 510 294 510Q367 510 421.0 477.5Q475 445 505.0 387.5Q535 330 535 254V211H174Q176 160 212.0 128.0Q248 96 300 96Q353 96 378.0 119.0Q403 142 416 170L519 116Q505 90 478.5 59.5Q452 29 408.0 7.5Q364 -14 296 -14ZM175 305H407Q403 348 372.5 374.0Q342 400 293 400Q242 400 212.0 374.0Q182 348 175 305Z"/><path transform="translate(1096.500,0.000) scale(0.614286,-0.614286)" d="M174 0 16 496H150L265 92H283L398 496H532L374 0Z"/><path transform="translate(1433.129,0.000) scale(0.614286,-0.614286)" d="M46 0V116H138V584H46V700H334Q475 700 548.5 628.5Q622 557 622 416V284Q622 143 548.5 71.5Q475 0 334 0ZM270 120H336Q416 120 453.0 162.0Q490 204 490 280V420Q490 497 453.0 538.5Q416 580 336 580H270Z"/><path transform="translate(1842.243,0.000) scale(0.614286,-0.614286)" d="M296 -14Q222 -14 165.5 17.5Q109 49 77.5 106.5Q46 164 46 242V254Q46 332 77.0 389.5Q108 447 164.0 478.5Q220 510 294 510Q367 510 421.0 477.5Q475 445 505.0 387.5Q535 330 535 254V211H174Q176 160 212.0 128.0Q248 96 300 96Q353 96 378.0 119.0Q403 142 416 170L519 116Q505 90 478.5 59.5Q452 29 408.0 7.5Q364 -14 296 -14ZM175 305H407Q403 348 372.5 374.0Q342 400 293 400Q242 400 212.0 374.0Q182 348 175 305Z"/><path transform="translate(2188.086,0.000) scale(0.614286,-0.614286)" d="M174 0 16 496H150L265 92H283L398 496H532L374 0Z"/><path transform="translate(2524.714,0.000) scale(0.614286,-0.614286)" d="M122 0 30 700H161L229 92H247L335 700H563L651 92H669L737 700H868L776 0H548L458 622H440L350 0Z"/><path transform="translate(3072.657,0.000) scale(0.614286,-0.614286)" d="M306 -14Q232 -14 173.0 16.0Q114 46 80.0 103.0Q46 160 46 240V256Q46 336 80.0 393.0Q114 450 173.0 480.0Q232 510 306 510Q380 510 439.0 480.0Q498 450 532.0 393.0Q566 336 566 256V240Q566 160 532.0 103.0Q498 46 439.0 16.0Q380 -14 306 -14ZM306 98Q364 98 402.0 135.5Q440 173 440 243V253Q440 323 402.5 360.5Q365 398 306 398Q248 398 210.0 360.5Q172 323 172 253V243Q172 173 210.0 135.5Q248 98 306 98Z"/><path transform="translate(3448.600,0.000) scale(0.614286,-0.614286)" d="M70 0V496H194V440H212Q223 470 248.5 484.0Q274 498 308 498H368V386H306Q258 386 227.0 360.5Q196 335 196 282V0Z"/><path transform="translate(3691.857,0.000) scale(0.614286,-0.614286)" d="M70 0V700H196V313H214L378 496H542L313 256L550 0H388L214 197H196V0Z"/><path transform="translate(4029.714,0.000) scale(0.614286,-0.614286)" d="M276 -14Q179 -14 117.0 28.0Q55 70 42 148L158 178Q168 126 200.5 106.0Q233 86 276 86Q320 86 341.0 101.5Q362 117 362 140Q362 163 342.0 175.5Q322 188 278 196L250 201Q198 211 155.0 228.5Q112 246 86.0 277.0Q60 308 60 357Q60 431 114.0 470.5Q168 510 256 510Q339 510 394.0 473.0Q449 436 466 376L349 340Q341 378 316.5 394.0Q292 410 256 410Q220 410 201.0 397.5Q182 385 182 363Q182 339 202.0 327.5Q222 316 256 310L284 305Q340 295 385.5 278.5Q431 262 457.5 231.5Q484 201 484 149Q484 71 427.5 28.5Q371 -14 276 -14Z"/></g></g></svg>